<svg width="64" height="64" viewBox="0 0 64 64" fill="none" xmlns="http://www.w3.org/2000/svg">
<g id="Frame 21">
<g id="Ellipse 2" filter="url(#filter0_d_23_2065)">
<circle cx="32" cy="28" r="28" fill="#FFBF7F"/>
</g>
<path id="+" d="M36.0973 24.6864L44.1651 24.7584C44.9815 24.6143 45.5817 24.6623 45.9659 24.9025C46.3981 25.1426 46.9504 25.5267 47.6227 26.055C48.295 26.5832 48.6312 27.3276 48.6312 28.288C48.6312 28.7682 48.5351 29.2725 48.343 29.8007C48.1989 30.329 47.9828 30.7132 47.6947 30.9533C47.3105 31.3374 46.9023 31.6256 46.4701 31.8177C46.0379 31.9617 45.6057 32.0818 45.1735 32.1778C44.7894 32.2259 44.4532 32.2499 44.1651 32.2499C43.925 32.2499 43.7809 32.2499 43.7329 32.2499H36.0973V40.6057C36.2414 41.4221 36.1934 42.2625 35.9533 43.1269C35.7132 43.9433 35.329 44.6876 34.8007 45.36C34.2725 46.0323 33.5281 46.3684 32.5677 46.3684C32.0875 46.3684 31.4632 46.2964 30.6948 46.1523C29.9265 45.9602 29.4222 45.7201 29.1821 45.432C28.7979 45.0478 28.5098 44.5676 28.3177 43.9913C28.1737 43.367 28.0536 42.7667 27.9576 42.1905C27.9095 41.6142 27.8855 41.134 27.8855 40.7498C27.8855 40.3176 27.8855 40.0775 27.8855 40.0295L27.8135 32.3219H21.7627C21.2344 32.3219 20.7782 32.3459 20.394 32.3939C20.0579 32.3939 19.7217 32.3699 19.3856 32.3219C19.0974 32.2259 18.8093 32.1058 18.5212 31.9617C18.233 31.8177 17.8969 31.5776 17.5127 31.2414C16.5042 30.5211 16 29.6326 16 28.5762C16 27.9038 16.1921 27.2555 16.5763 26.6313C17.0085 25.9589 17.6087 25.5027 18.3771 25.2626C18.8573 25.1186 19.2415 24.9985 19.5296 24.9025C19.8658 24.8064 20.1539 24.7344 20.394 24.6864C20.6822 24.6383 20.9703 24.6143 21.2584 24.6143C21.5946 24.5663 22.0268 24.5423 22.555 24.5423L27.8135 24.6143V19.0677C27.7655 17.9632 27.7655 16.8347 27.8135 15.6822C27.8615 14.4816 28.2217 13.4731 28.894 12.6568C29.2782 12.1285 29.8064 11.7203 30.4787 11.4322C31.151 11.1441 31.7513 11 32.2796 11C32.9519 11 33.6002 11.2401 34.2245 11.7203C34.8968 12.1525 35.353 12.7528 35.5931 13.5212C35.9293 14.5296 36.0733 15.5621 36.0253 16.6186C36.0253 17.6751 36.0493 18.7556 36.0973 19.8601V24.6864Z" fill="#FFF9F2"/>
</g>
<defs>
<filter id="filter0_d_23_2065" x="0" y="0" width="64" height="64" filterUnits="userSpaceOnUse" color-interpolation-filters="sRGB">
<feFlood flood-opacity="0" result="BackgroundImageFix"/>
<feColorMatrix in="SourceAlpha" type="matrix" values="0 0 0 0 0 0 0 0 0 0 0 0 0 0 0 0 0 0 127 0" result="hardAlpha"/>
<feOffset dy="4"/>
<feGaussianBlur stdDeviation="2"/>
<feComposite in2="hardAlpha" operator="out"/>
<feColorMatrix type="matrix" values="0 0 0 0 1 0 0 0 0 0.74902 0 0 0 0 0.498039 0 0 0 0.25 0"/>
<feBlend mode="normal" in2="BackgroundImageFix" result="effect1_dropShadow_23_2065"/>
<feBlend mode="normal" in="SourceGraphic" in2="effect1_dropShadow_23_2065" result="shape"/>
</filter>
</defs>
</svg>
